<svg id="レイヤー_1" data-name="レイヤー 1" xmlns="http://www.w3.org/2000/svg" viewBox="0 0 1024 1024"><defs><style>.cls-1{fill:#3fb9e8;}.cls-2{fill:#cddc39;}.cls-3{fill:#ff9800;}.cls-4{fill:#e91e63;}</style></defs><polygon class="cls-1" points="636.42 351.53 727.45 351.53 727.45 240.76 523.83 240.76 523.83 435.61 300.1 435.61 300.1 735.37 337.75 735.37 337.75 617.66 566.96 617.66 566.96 735.37 794.71 735.37 794.71 580.74 636.42 580.74 636.42 351.53"/><polygon class="cls-2" points="727.45 440.36 727.45 380.04 665.3 380.04 665.3 551.86 837.12 551.86 837.12 440.36 727.45 440.36"/><rect class="cls-3" x="598.77" y="788.01" width="123.56" height="123.56"/><polygon class="cls-2" points="197.74 108.42 197.74 405.26 493.12 405.26 493.12 404.9 493.12 108.42 197.74 108.42"/><rect class="cls-3" x="46.76" y="459" width="216.78" height="225.56"/><rect class="cls-4" x="753.4" y="190.31" width="224.09" height="224.09"/><polygon class="cls-4" points="539.18 645.44 365.17 645.44 365.17 817.26 365.17 819.45 539.18 819.45 539.18 645.44"/></svg>