<?xml version="1.0" encoding="utf-8"?>
<!-- Generator: Adobe Illustrator 21.1.0, SVG Export Plug-In . SVG Version: 6.00 Build 0)  -->
<svg version="1.1" id="レイヤー_1" xmlns="http://www.w3.org/2000/svg" xmlns:xlink="http://www.w3.org/1999/xlink" x="0px"
	 y="0px" viewBox="0 0 1190.6 841.9" style="enable-background:new 0 0 1190.6 841.9;" xml:space="preserve">
<style type="text/css">
	.st0{fill:#595757;}
	.st1{fill:#37BEF0;}
	.st2{fill:#C3D83F;}
	.st3{fill:#F3981C;}
	.st4{fill:#E73462;}
	.st5{fill-rule:evenodd;clip-rule:evenodd;fill:#C9CACA;}
	.st6{fill-rule:evenodd;clip-rule:evenodd;fill:#9FA0A0;}
	.st7{fill-rule:evenodd;clip-rule:evenodd;fill:#898989;}
	.st8{fill:#FFFFFF;}
</style>
<path class="st0" d="M435.5,452.9h-34.4l4.9-22.4h64.7l-17.1,80.2c-16.8,6.3-34.1,9.1-50,9.1c-42.5,0-76-21.3-76-63.1
	c0-64,49.3-97.7,105.7-97.7c17.8,0,30.2,2.1,43.2,7.5l-7.7,25.5c-10.5-6.3-22.9-8.6-35.8-8.6c-41.4,0-69.7,28.5-69.7,70.1
	c0,22.9,14.3,42.1,44.2,42.1c7.2,0,13.1-0.7,19.4-2.6L435.5,452.9z"/>
<path class="st0" d="M478.7,517.2l19.4-91.2c1.9-8.6,3.7-17.3,4.7-25.9h30.4l-4.4,24.1c7.5-14.3,21.5-26.9,38.3-26.9
	c3.5,0,6.3,0.2,9.3,1.2l-7.5,29.5c-2.8-1.2-6.1-1.6-9.6-1.6c-21.3,0-33.4,20.6-37.2,39.3l-11,51.7H478.7z"/>
<path class="st0" d="M570.6,517.2l24.8-117.3h32.5l-24.8,117.3H570.6z M599.5,378.1l5.4-25.9h32.7l-5.4,25.9H599.5z"/>
<path class="st0" d="M716.2,517.2c0.2-6.3,1.4-16.4,3.3-27.4c-12.2,19.9-27.6,29.9-46.5,29.9c-21.7,0-35.5-15-35.5-39
	c0-46,35.3-83.2,81.6-83.2c4.4,0,12.4,0.5,16.8,2.1l11-51h32.5l-25,117.1c-4.7,21.7-7.2,40.9-7.2,51.4H716.2z M731.4,421.1
	c-3.5-1.6-7.9-1.9-12.4-1.9c-25.9,0-47.7,29.5-47.7,59.4c0,11.2,5.4,19.4,15,19.4c18.7,0,33.7-25,38.8-47L731.4,421.1z"/>
<path class="st0" d="M809,361.3h51.9c41.4,0,69.4,16.4,69.4,61.5c0,56.3-36.7,94.4-97.2,94.4h-57.3L809,361.3z M829.3,493.6
	c42.3,0,65.2-29,65.2-66.8c0-29.9-13.6-41.8-42.8-41.8h-13.3l-23.1,108.7H829.3z"/>
<path class="st0" d="M938.2,517.2l33.2-155.9h62.4c20.8,0,43.2,9.6,43.2,32.7c0,23.1-15.4,38.1-38.1,42.5
	c16.8,3.7,27.6,14.3,27.6,30.9c0,40.2-38.3,49.8-70.6,49.8H938.2z M975.4,496.4h16.1c19.6,0,40-5.8,40-30.2
	c0-16.1-18.2-18.9-30.9-18.9h-14.7L975.4,496.4z M990.1,426.7h16.6c18.2,0,36-7,36-27.8c0-13.1-13.3-16.8-23.8-16.8h-19.4
	L990.1,426.7z"/>
<g>
	<polygon class="st1" points="195.7,389.4 220.6,389.4 220.6,359.1 164.9,359.1 164.9,412.4 103.7,412.4 103.7,494.4 114,494.4 
		114,462.2 176.7,462.2 176.7,494.4 239,494.4 239,452.1 195.7,452.1 	"/>
	<polygon class="st2" points="220.6,413.7 220.6,397.2 203.6,397.2 203.6,444.2 250.6,444.2 250.6,413.7 	"/>
	<rect x="185.4" y="508.8" class="st3" width="33.8" height="33.8"/>
	<polygon class="st2" points="75.7,322.9 75.7,404.1 156.5,404.1 156.5,404 156.5,322.9 	"/>
	<rect x="34.4" y="418.8" class="st3" width="59.3" height="61.7"/>
	<rect x="227.7" y="345.3" class="st4" width="61.3" height="61.3"/>
	<polygon class="st4" points="169.1,469.8 121.5,469.8 121.5,516.8 121.5,517.4 169.1,517.4 169.1,469.8 	"/>
</g>
</svg>
