<?xml version="1.0" encoding="utf-8"?>
<!-- Generator: Adobe Illustrator 21.1.0, SVG Export Plug-In . SVG Version: 6.00 Build 0)  -->
<svg version="1.1" id="レイヤー_1" xmlns="http://www.w3.org/2000/svg" xmlns:xlink="http://www.w3.org/1999/xlink" x="0px"
	 y="0px" viewBox="0 0 1190.6 841.9" style="enable-background:new 0 0 1190.6 841.9;" xml:space="preserve">
<style type="text/css">
	.st0{fill:#595757;}
	.st1{fill:#37BEF0;}
	.st2{fill:#C3D83F;}
	.st3{fill:#F3981C;}
	.st4{fill:#E73462;}
	.st5{fill-rule:evenodd;clip-rule:evenodd;fill:#C9CACA;}
	.st6{fill-rule:evenodd;clip-rule:evenodd;fill:#9FA0A0;}
	.st7{fill-rule:evenodd;clip-rule:evenodd;fill:#898989;}
	.st8{fill:#FFFFFF;}
</style>
<rect x="-29.2" y="273.2" class="st0" width="1242.9" height="340.1"/>
<path class="st8" d="M442.6,452.9h-34.4l4.9-22.4h64.7l-17.1,80.2c-16.8,6.3-34.1,9.1-50,9.1c-42.5,0-76-21.3-76-63.1
	c0-64,49.3-97.7,105.7-97.7c17.8,0,30.2,2.1,43.2,7.5l-7.7,25.5c-10.5-6.3-22.9-8.6-35.8-8.6c-41.4,0-69.7,28.5-69.7,70.1
	c0,22.9,14.3,42.1,44.2,42.1c7.2,0,13.1-0.7,19.4-2.6L442.6,452.9z"/>
<path class="st8" d="M485.9,517.2l19.4-91.2c1.9-8.6,3.7-17.3,4.7-25.9h30.4l-4.4,24.1c7.5-14.3,21.5-26.9,38.3-26.9
	c3.5,0,6.3,0.2,9.3,1.2l-7.5,29.5c-2.8-1.2-6.1-1.6-9.6-1.6c-21.3,0-33.4,20.6-37.2,39.3l-11,51.7H485.9z"/>
<path class="st8" d="M577.7,517.2l24.8-117.3H635l-24.8,117.3H577.7z M606.7,378.1l5.4-25.9h32.7l-5.4,25.9H606.7z"/>
<path class="st8" d="M723.3,517.2c0.2-6.3,1.4-16.4,3.3-27.4c-12.2,19.9-27.6,29.9-46.5,29.9c-21.7,0-35.5-15-35.5-39
	c0-46,35.3-83.2,81.6-83.2c4.4,0,12.4,0.5,16.8,2.1l11-51h32.5l-25,117.1c-4.7,21.7-7.2,40.9-7.2,51.4H723.3z M738.5,421.1
	c-3.5-1.6-7.9-1.9-12.4-1.9c-25.9,0-47.7,29.5-47.7,59.4c0,11.2,5.4,19.4,15,19.4c18.7,0,33.7-25,38.8-47L738.5,421.1z"/>
<path class="st8" d="M816.1,361.3H868c41.4,0,69.4,16.4,69.4,61.5c0,56.3-36.7,94.4-97.2,94.4h-57.3L816.1,361.3z M836.4,493.6
	c42.3,0,65.2-29,65.2-66.8c0-29.9-13.6-41.8-42.8-41.8h-13.3l-23.1,108.7H836.4z"/>
<path class="st8" d="M945.4,517.2l33.2-155.9h62.4c20.8,0,43.2,9.6,43.2,32.7c0,23.1-15.4,38.1-38.1,42.5
	c16.8,3.7,27.6,14.3,27.6,30.9c0,40.2-38.3,49.8-70.6,49.8H945.4z M982.5,496.4h16.1c19.6,0,40-5.8,40-30.2
	c0-16.1-18.2-18.9-30.9-18.9H993L982.5,496.4z M997.2,426.7h16.6c18.2,0,36-7,36-27.8c0-13.1-13.3-16.8-23.8-16.8h-19.4L997.2,426.7
	z"/>
<g>
	<polygon class="st8" points="202.9,389.4 227.7,389.4 227.7,359.1 172,359.1 172,412.4 110.8,412.4 110.8,494.4 121.1,494.4 
		121.1,462.2 183.8,462.2 183.8,494.4 246.2,494.4 246.2,452.1 202.9,452.1 	"/>
	<polygon class="st8" points="227.7,413.7 227.7,397.2 210.7,397.2 210.7,444.2 257.8,444.2 257.8,413.7 	"/>
	<rect x="192.6" y="508.8" class="st8" width="33.8" height="33.8"/>
	<polygon class="st8" points="82.8,322.9 82.8,404.1 163.7,404.1 163.7,404 163.7,322.9 	"/>
	<rect x="41.6" y="418.8" class="st8" width="59.3" height="61.7"/>
	<rect x="234.8" y="345.3" class="st8" width="61.3" height="61.3"/>
	<polygon class="st8" points="176.3,469.8 128.6,469.8 128.6,516.8 128.6,517.4 176.3,517.4 176.3,469.8 	"/>
</g>
</svg>
