<?xml version="1.0" encoding="utf-8"?>
<!-- Generator: Adobe Illustrator 21.1.0, SVG Export Plug-In . SVG Version: 6.00 Build 0)  -->
<svg version="1.1" id="レイヤー_1" xmlns="http://www.w3.org/2000/svg" xmlns:xlink="http://www.w3.org/1999/xlink" x="0px"
	 y="0px" viewBox="0 0 1190.6 841.9" style="enable-background:new 0 0 1190.6 841.9;" xml:space="preserve">
<style type="text/css">
	.st0{fill:#595757;}
	.st1{fill:#3FB9E8;}
	.st2{fill:#CDDC39;}
	.st3{fill:#FF9800;}
	.st4{fill:#E91E63;}
	.st5{fill-rule:evenodd;clip-rule:evenodd;fill:#C8C9CA;}
	.st6{fill-rule:evenodd;clip-rule:evenodd;fill:#9E9E9F;}
	.st7{fill-rule:evenodd;clip-rule:evenodd;fill:#888888;}
	.st8{fill:#FFFFFF;}
</style>
<path class="st0" d="M445.1,452.9h-34.4l4.9-22.4h64.7l-17.1,80.2c-16.8,6.3-34.1,9.1-50,9.1c-42.5,0-76-21.3-76-63.1
	c0-64,49.3-97.7,105.7-97.7c17.8,0,30.2,2.1,43.2,7.5l-7.7,25.5c-10.5-6.3-22.9-8.6-35.8-8.6c-41.4,0-69.7,28.5-69.7,70.1
	c0,22.9,14.3,42.1,44.2,42.1c7.2,0,13.1-0.7,19.4-2.6L445.1,452.9z"/>
<path class="st0" d="M488.3,517.2l19.4-91.2c1.9-8.6,3.7-17.3,4.7-25.9h30.4l-4.4,24.1c7.5-14.3,21.5-26.9,38.3-26.9
	c3.5,0,6.3,0.2,9.3,1.2l-7.5,29.5c-2.8-1.2-6.1-1.6-9.6-1.6c-21.3,0-33.4,20.6-37.2,39.3l-11,51.7H488.3z"/>
<path class="st0" d="M580.1,517.2l24.8-117.3h32.5l-24.8,117.3H580.1z M609.1,378.1l5.4-25.9h32.7l-5.4,25.9H609.1z"/>
<path class="st0" d="M725.8,517.2c0.2-6.3,1.4-16.4,3.3-27.4c-12.2,19.9-27.6,29.9-46.5,29.9c-21.7,0-35.5-15-35.5-39
	c0-46,35.3-83.2,81.6-83.2c4.4,0,12.4,0.5,16.8,2.1l11-51h32.5l-25,117.1c-4.7,21.7-7.2,40.9-7.2,51.4H725.8z M740.9,421.1
	c-3.5-1.6-7.9-1.9-12.4-1.9c-25.9,0-47.7,29.5-47.7,59.4c0,11.2,5.4,19.4,15,19.4c18.7,0,33.7-25,38.8-47L740.9,421.1z"/>
<path class="st0" d="M818.5,361.3h51.9c41.4,0,69.4,16.4,69.4,61.5c0,56.3-36.7,94.4-97.2,94.4h-57.3L818.5,361.3z M838.9,493.6
	c42.3,0,65.2-29,65.2-66.8c0-29.9-13.6-41.8-42.8-41.8H848l-23.1,108.7H838.9z"/>
<path class="st0" d="M947.8,517.2L981,361.3h62.4c20.8,0,43.2,9.6,43.2,32.7c0,23.1-15.4,38.1-38.1,42.5
	c16.8,3.7,27.6,14.3,27.6,30.9c0,40.2-38.3,49.8-70.6,49.8H947.8z M984.9,496.4h16.1c19.6,0,40-5.8,40-30.2
	c0-16.1-18.2-18.9-30.9-18.9h-14.7L984.9,496.4z M999.7,426.7h16.6c18.2,0,36-7,36-27.8c0-13.1-13.3-16.8-23.8-16.8H1009
	L999.7,426.7z"/>
<g>
	<polygon class="st0" points="205.3,389.4 230.2,389.4 230.2,359.1 174.4,359.1 174.4,412.4 113.2,412.4 113.2,494.4 123.5,494.4 
		123.5,462.2 186.2,462.2 186.2,494.4 248.6,494.4 248.6,452.1 205.3,452.1 	"/>
	<polygon class="st5" points="230.2,413.7 230.2,397.2 213.2,397.2 213.2,444.2 260.2,444.2 260.2,413.7 	"/>
	<rect x="195" y="508.8" class="st6" width="33.8" height="33.8"/>
	<polygon class="st5" points="85.2,322.9 85.2,404.1 166.1,404.1 166.1,404 166.1,322.9 	"/>
	<rect x="44" y="418.8" class="st6" width="59.3" height="61.7"/>
	<rect x="237.2" y="345.3" class="st7" width="61.3" height="61.3"/>
	<polygon class="st7" points="178.7,469.8 131.1,469.8 131.1,516.8 131.1,517.4 178.7,517.4 178.7,469.8 	"/>
</g>
</svg>
